<?xml version="1.0" encoding="UTF-8" standalone="no"?>
<!DOCTYPE svg PUBLIC "-//W3C//DTD SVG 1.1//EN" "http://www.w3.org/Graphics/SVG/1.1/DTD/svg11.dtd">
<svg width="100%" height="100%" viewBox="0 0 509 129" version="1.1" xmlns="http://www.w3.org/2000/svg" xmlns:xlink="http://www.w3.org/1999/xlink" xml:space="preserve" xmlns:serif="http://www.serif.com/" style="fill-rule:evenodd;clip-rule:evenodd;stroke-linejoin:round;stroke-miterlimit:2;">
    <g transform="matrix(1,0,0,1,-572.672,-277.084)">
        <g transform="matrix(150,0,0,150,556.772,383.284)">
            <path d="M0.419,0.152L0.496,0.152L0.496,0.074L0.455,0.074C0.372,0.074 0.353,0.06 0.353,0.004C0.353,-0.05 0.358,-0.098 0.358,-0.159C0.358,-0.235 0.329,-0.264 0.258,-0.276L0.258,-0.28C0.329,-0.292 0.358,-0.321 0.358,-0.397C0.358,-0.456 0.353,-0.507 0.353,-0.56C0.353,-0.616 0.372,-0.63 0.455,-0.63L0.496,-0.63L0.496,-0.708L0.419,-0.708C0.291,-0.708 0.233,-0.674 0.233,-0.566C0.233,-0.496 0.243,-0.457 0.243,-0.395C0.243,-0.36 0.214,-0.323 0.106,-0.321L0.106,-0.235C0.214,-0.233 0.243,-0.196 0.243,-0.161C0.243,-0.098 0.233,-0.061 0.233,0.01C0.233,0.118 0.291,0.152 0.419,0.152Z" style="fill:rgb(62,140,182);fill-rule:nonzero;"/>
        </g>
        <g transform="matrix(150,0,0,150,646.772,383.284)">
            <path d="M0.273,0.012C0.453,0.012 0.516,-0.094 0.516,-0.222L0.516,-0.652L0.114,-0.652L0.114,-0.529L0.369,-0.529L0.369,-0.234C0.369,-0.144 0.335,-0.115 0.268,-0.115C0.225,-0.115 0.181,-0.14 0.144,-0.187L0.059,-0.096C0.116,-0.016 0.201,0.012 0.273,0.012Z" style="fill:rgb(62,140,182);fill-rule:nonzero;"/>
        </g>
        <g transform="matrix(150,0,0,150,736.772,383.284)">
            <path d="M0.298,0.012C0.46,0.012 0.551,-0.082 0.551,-0.19C0.551,-0.282 0.497,-0.335 0.411,-0.367L0.332,-0.401C0.269,-0.424 0.225,-0.439 0.225,-0.478C0.225,-0.516 0.258,-0.537 0.307,-0.537C0.371,-0.537 0.412,-0.518 0.457,-0.485L0.532,-0.578C0.473,-0.634 0.394,-0.664 0.315,-0.664C0.174,-0.664 0.076,-0.578 0.076,-0.47C0.076,-0.375 0.142,-0.319 0.215,-0.292L0.299,-0.256C0.361,-0.23 0.4,-0.218 0.4,-0.172C0.4,-0.139 0.371,-0.115 0.308,-0.115C0.245,-0.115 0.184,-0.143 0.135,-0.183L0.05,-0.082C0.12,-0.02 0.21,0.012 0.298,0.012Z" style="fill:rgb(62,140,182);fill-rule:nonzero;"/>
        </g>
        <g transform="matrix(150,0,0,150,826.772,383.284)">
            <path d="M0.3,0.012C0.455,0.012 0.562,-0.106 0.562,-0.329C0.562,-0.547 0.455,-0.664 0.3,-0.664C0.145,-0.664 0.038,-0.547 0.038,-0.329C0.038,-0.106 0.145,0.012 0.3,0.012ZM0.3,-0.115C0.232,-0.115 0.189,-0.188 0.189,-0.329C0.189,-0.464 0.232,-0.537 0.3,-0.537C0.368,-0.537 0.411,-0.464 0.411,-0.329C0.411,-0.188 0.368,-0.115 0.3,-0.115Z" style="fill:rgb(62,140,182);fill-rule:nonzero;"/>
        </g>
        <g transform="matrix(150,0,0,150,916.772,383.284)">
            <path d="M0.066,-0L0.207,-0L0.207,-0.231C0.207,-0.308 0.193,-0.395 0.186,-0.467L0.19,-0.467L0.246,-0.325L0.383,-0L0.534,-0L0.534,-0.652L0.393,-0.652L0.393,-0.421C0.393,-0.344 0.407,-0.253 0.414,-0.184L0.41,-0.184L0.354,-0.328L0.217,-0.652L0.066,-0.652L0.066,-0Z" style="fill:rgb(62,140,182);fill-rule:nonzero;"/>
        </g>
        <g transform="matrix(150,0,0,150,1006.77,383.284)">
            <path d="M0.105,0.152L0.182,0.152C0.31,0.152 0.368,0.118 0.368,0.01C0.368,-0.061 0.357,-0.098 0.357,-0.161C0.357,-0.196 0.386,-0.233 0.495,-0.235L0.495,-0.321C0.386,-0.323 0.357,-0.36 0.357,-0.395C0.357,-0.457 0.368,-0.496 0.368,-0.566C0.368,-0.674 0.31,-0.708 0.182,-0.708L0.105,-0.708L0.105,-0.63L0.146,-0.63C0.228,-0.63 0.247,-0.616 0.247,-0.56C0.247,-0.507 0.243,-0.456 0.243,-0.397C0.243,-0.321 0.271,-0.292 0.343,-0.28L0.343,-0.276C0.271,-0.264 0.243,-0.235 0.243,-0.159C0.243,-0.098 0.247,-0.05 0.247,0.004C0.247,0.06 0.228,0.074 0.146,0.074L0.105,0.074L0.105,0.152Z" style="fill:rgb(62,140,182);fill-rule:nonzero;"/>
        </g>
    </g>
</svg>
