<?xml version="1.0" encoding="UTF-8" standalone="no"?>
<!DOCTYPE svg PUBLIC "-//W3C//DTD SVG 1.1//EN" "http://www.w3.org/Graphics/SVG/1.1/DTD/svg11.dtd">
<svg width="100%" height="100%" viewBox="0 0 778 169" version="1.1" xmlns="http://www.w3.org/2000/svg" xmlns:xlink="http://www.w3.org/1999/xlink" xml:space="preserve" xmlns:serif="http://www.serif.com/" style="fill-rule:evenodd;clip-rule:evenodd;stroke-miterlimit:1.5;">
    <g transform="matrix(0.78866,0,0,0.798406,-4991,-7092.21)">
        <circle cx="6885.83" cy="8988.19" r="35.433" style="fill:rgb(62,140,182);"/>
    </g>
    <g transform="matrix(1.51427,0,0,1.46658,-9885.39,-13097.9)">
        <circle cx="6885.83" cy="8988.19" r="35.433" style="fill:rgb(62,140,182);"/>
    </g>
    <g transform="matrix(2.2714,0,0,2.21006,-14943.7,-19780.4)">
        <circle cx="6885.83" cy="8988.19" r="35.433" style="fill:rgb(62,140,182);"/>
    </g>
    <g transform="matrix(1,0,0,1,-866.035,-1777.08)">
        <text x="1183.72px" y="1874.29px" style="font-family:'Lato-Regular', 'Lato', sans-serif;font-size:50px;fill:rgb(62,140,182);">y</text>
    </g>
    <g transform="matrix(1,0,0,1,-1100.69,-1808.47)">
        <text x="1183.92px" y="1874.29px" style="font-family:'Lato-Regular', 'Lato', sans-serif;font-size:50px;fill:rgb(62,140,182);">x</text>
    </g>
    <g transform="matrix(1,0,0,1,-273.406,-1971.11)">
        <path d="M566.929,1984.25L566.929,2125.98" style="fill:none;stroke:rgb(62,140,182);stroke-width:14.58px;"/>
        <path d="M543.307,1984.25L590.551,1984.25" style="fill:none;stroke:rgb(62,140,182);stroke-width:14.58px;"/>
        <path d="M543.307,2125.98L590.551,2125.98" style="fill:none;stroke:rgb(62,140,182);stroke-width:14.58px;"/>
    </g>
    <g transform="matrix(1,0,0,1,-671.894,-1965.67)">
        <path d="M685.039,2055.12L850.394,2055.12" style="fill:none;stroke:rgb(62,140,182);stroke-width:14.58px;"/>
        <path d="M685.039,2078.74L685.039,2031.5" style="fill:none;stroke:rgb(62,140,182);stroke-width:14.58px;"/>
        <path d="M850.394,2031.5L850.394,2078.74" style="fill:none;stroke:rgb(62,140,182);stroke-width:14.58px;"/>
    </g>
</svg>
