<?xml version="1.0" encoding="UTF-8" standalone="no"?>
<!DOCTYPE svg PUBLIC "-//W3C//DTD SVG 1.1//EN" "http://www.w3.org/Graphics/SVG/1.1/DTD/svg11.dtd">
<svg width="100%" height="100%" viewBox="0 0 877 239" version="1.1" xmlns="http://www.w3.org/2000/svg" xmlns:xlink="http://www.w3.org/1999/xlink" xml:space="preserve" xmlns:serif="http://www.serif.com/" style="fill-rule:evenodd;clip-rule:evenodd;stroke-miterlimit:1.5;">
    <g transform="matrix(1,0,0,1,-1309.69,-1191.58)">
        <g transform="matrix(1,0,0,1,141.732,-11.811)">
            <rect x="1181.1" y="1228.35" width="96.146" height="188.976" style="fill:none;stroke:rgb(62,140,182);stroke-width:14.58px;"/>
            <g transform="matrix(1,0,0,1,-23.622,0)">
                <rect x="1322.84" y="1228.35" width="94.488" height="188.976" style="fill:none;stroke:rgb(62,140,182);stroke-width:14.58px;"/>
            </g>
        </g>
        <g transform="matrix(6.12323e-17,1,-1,6.12323e-17,3082.68,23.622)">
            <rect x="1181.1" y="1228.35" width="96.146" height="188.976" style="fill:none;stroke:rgb(62,140,182);stroke-width:14.58px;"/>
            <g transform="matrix(1,0,0,1,-23.622,0)">
                <rect x="1322.84" y="1228.35" width="94.488" height="188.976" style="fill:none;stroke:rgb(62,140,182);stroke-width:14.58px;"/>
            </g>
        </g>
        <g transform="matrix(1,0,0,1,141.732,-11.811)">
            <g transform="matrix(1,0,0,1,-141.732,11.811)">
                <path d="M2007.87,1381.89L1984.25,1381.89L1984.25,1216.54L2149.61,1216.54L2149.61,1240.16L2007.87,1240.16L2007.87,1381.89Z" style="fill:none;stroke:rgb(62,140,182);stroke-width:14.58px;"/>
            </g>
            <rect x="1866.14" y="1251.97" width="165.354" height="165.354" style="fill:none;stroke:rgb(62,140,182);stroke-width:14.58px;"/>
        </g>
    </g>
</svg>
