<?xml version="1.0" encoding="UTF-8" standalone="no"?>
<!DOCTYPE svg PUBLIC "-//W3C//DTD SVG 1.1//EN" "http://www.w3.org/Graphics/SVG/1.1/DTD/svg11.dtd">
<svg width="100%" height="100%" viewBox="0 0 457 148" version="1.1" xmlns="http://www.w3.org/2000/svg" xmlns:xlink="http://www.w3.org/1999/xlink" xml:space="preserve" xmlns:serif="http://www.serif.com/" style="fill-rule:evenodd;clip-rule:evenodd;stroke-linejoin:round;stroke-miterlimit:2;">
    <g transform="matrix(0.870534,0,0,0.870534,-397.92,-1014.52)">
        <path d="M560.522,1235.62L560.522,1316.24L527.313,1335.03L527.313,1235.62L457.099,1165.41L630.736,1165.41L560.522,1235.62Z" style="fill:rgb(62,140,182);"/>
    </g>
    <g transform="matrix(1.00629,0,0,1.55619,-524.262,-1859.15)">
        <g transform="matrix(143.382,0,0,92.7165,740.678,1263.54)">
            <path d="M0.471,-0.681C0.512,-0.681 0.541,-0.67 0.557,-0.648C0.557,-0.594 0.541,-0.567 0.51,-0.567C0.501,-0.567 0.494,-0.571 0.487,-0.578C0.481,-0.585 0.476,-0.593 0.472,-0.602C0.468,-0.61 0.462,-0.618 0.456,-0.625C0.449,-0.631 0.441,-0.635 0.434,-0.635C0.413,-0.635 0.392,-0.615 0.37,-0.575C0.349,-0.535 0.332,-0.482 0.319,-0.414L0.319,-0.412C0.319,-0.41 0.32,-0.408 0.322,-0.408L0.435,-0.408C0.44,-0.408 0.442,-0.404 0.442,-0.395C0.442,-0.383 0.438,-0.37 0.43,-0.357L0.314,-0.357C0.311,-0.357 0.308,-0.355 0.308,-0.35L0.252,-0.056C0.243,-0.007 0.229,0.035 0.212,0.072C0.194,0.109 0.174,0.138 0.152,0.159C0.13,0.179 0.108,0.194 0.085,0.204C0.063,0.214 0.041,0.219 0.019,0.219C-0.004,0.219 -0.023,0.215 -0.038,0.207C-0.053,0.198 -0.062,0.189 -0.064,0.18C-0.065,0.16 -0.061,0.143 -0.053,0.129C-0.045,0.116 -0.033,0.109 -0.018,0.109C-0.01,0.109 -0.004,0.113 0.002,0.119C0.008,0.126 0.013,0.133 0.016,0.141C0.02,0.149 0.025,0.157 0.032,0.164C0.039,0.17 0.047,0.174 0.056,0.174C0.068,0.174 0.08,0.168 0.091,0.155C0.102,0.143 0.111,0.127 0.12,0.106C0.128,0.086 0.134,0.067 0.14,0.048C0.145,0.03 0.149,0.011 0.152,-0.008L0.217,-0.35L0.217,-0.352C0.217,-0.355 0.216,-0.357 0.214,-0.357L0.153,-0.357C0.151,-0.357 0.149,-0.359 0.149,-0.363C0.149,-0.37 0.155,-0.379 0.167,-0.391C0.178,-0.402 0.189,-0.408 0.201,-0.408L0.224,-0.408C0.227,-0.408 0.229,-0.412 0.23,-0.421C0.244,-0.498 0.273,-0.561 0.318,-0.609C0.363,-0.657 0.414,-0.681 0.471,-0.681Z" style="fill:rgb(62,140,182);fill-rule:nonzero;"/>
        </g>
        <g transform="matrix(143.382,0,0,92.7165,831.535,1270.73)">
            <path d="M0.118,-0.298C0.118,-0.202 0.134,-0.115 0.166,-0.038C0.198,0.04 0.226,0.085 0.251,0.098C0.252,0.098 0.253,0.1 0.253,0.104C0.253,0.107 0.252,0.112 0.25,0.118C0.247,0.123 0.244,0.126 0.241,0.126C0.229,0.126 0.211,0.115 0.188,0.094C0.165,0.072 0.141,0.044 0.117,0.008C0.092,-0.027 0.071,-0.073 0.053,-0.128C0.035,-0.183 0.026,-0.24 0.026,-0.298C0.026,-0.356 0.035,-0.414 0.052,-0.47C0.069,-0.526 0.09,-0.572 0.114,-0.609C0.138,-0.646 0.161,-0.675 0.185,-0.697C0.208,-0.719 0.227,-0.73 0.241,-0.73C0.244,-0.73 0.247,-0.727 0.25,-0.721C0.252,-0.715 0.253,-0.71 0.253,-0.705C0.253,-0.704 0.253,-0.703 0.252,-0.703C0.22,-0.685 0.19,-0.636 0.161,-0.557C0.132,-0.477 0.118,-0.391 0.118,-0.298Z" style="fill:rgb(62,140,182);fill-rule:nonzero;"/>
        </g>
        <g transform="matrix(143.382,0,0,92.7165,868.097,1263.54)">
            <path d="M0.21,-0.432C0.235,-0.432 0.255,-0.405 0.271,-0.352L0.288,-0.291L0.338,-0.373C0.361,-0.412 0.39,-0.432 0.425,-0.432C0.449,-0.432 0.47,-0.425 0.488,-0.413C0.493,-0.404 0.495,-0.395 0.495,-0.387C0.495,-0.374 0.491,-0.364 0.483,-0.354C0.476,-0.345 0.465,-0.341 0.453,-0.341C0.443,-0.341 0.433,-0.345 0.423,-0.353C0.412,-0.361 0.403,-0.365 0.396,-0.365C0.384,-0.365 0.375,-0.358 0.367,-0.344L0.305,-0.235L0.345,-0.098C0.347,-0.09 0.351,-0.083 0.355,-0.077C0.36,-0.071 0.365,-0.068 0.369,-0.068C0.379,-0.068 0.391,-0.074 0.405,-0.086C0.419,-0.098 0.428,-0.107 0.433,-0.115C0.435,-0.115 0.438,-0.112 0.442,-0.106C0.447,-0.101 0.449,-0.096 0.449,-0.094C0.445,-0.079 0.427,-0.059 0.396,-0.034C0.366,-0.008 0.339,0.005 0.314,0.005C0.29,0.005 0.27,-0.022 0.254,-0.076L0.233,-0.147L0.177,-0.053C0.153,-0.014 0.124,0.006 0.09,0.006C0.065,0.006 0.044,-0 0.026,-0.013C0.022,-0.021 0.02,-0.03 0.02,-0.039C0.02,-0.051 0.023,-0.062 0.031,-0.071C0.038,-0.08 0.048,-0.085 0.061,-0.085C0.07,-0.085 0.081,-0.081 0.091,-0.073C0.102,-0.065 0.111,-0.061 0.119,-0.061C0.13,-0.061 0.139,-0.068 0.146,-0.082L0.218,-0.202L0.18,-0.328C0.174,-0.349 0.166,-0.359 0.155,-0.359C0.146,-0.359 0.134,-0.353 0.12,-0.341C0.106,-0.329 0.096,-0.319 0.092,-0.312C0.09,-0.312 0.087,-0.314 0.082,-0.32C0.077,-0.326 0.075,-0.33 0.075,-0.333C0.08,-0.347 0.097,-0.367 0.128,-0.393C0.159,-0.419 0.187,-0.432 0.21,-0.432Z" style="fill:rgb(62,140,182);fill-rule:nonzero;"/>
        </g>
        <g transform="matrix(143.382,0,0,92.7165,939.351,1270.73)">
            <path d="M0.156,-0.298C0.156,-0.391 0.142,-0.477 0.113,-0.557C0.085,-0.636 0.055,-0.685 0.023,-0.703C0.022,-0.703 0.021,-0.704 0.021,-0.705C0.021,-0.709 0.023,-0.714 0.025,-0.721C0.028,-0.727 0.031,-0.73 0.034,-0.73C0.049,-0.73 0.068,-0.719 0.092,-0.696C0.115,-0.674 0.139,-0.644 0.163,-0.607C0.186,-0.57 0.207,-0.524 0.224,-0.468C0.241,-0.413 0.249,-0.356 0.249,-0.298C0.249,-0.241 0.24,-0.186 0.223,-0.131C0.205,-0.076 0.184,-0.031 0.16,0.005C0.136,0.042 0.112,0.071 0.089,0.093C0.066,0.115 0.048,0.126 0.034,0.126C0.031,0.126 0.028,0.123 0.025,0.118C0.023,0.112 0.021,0.107 0.021,0.104C0.021,0.1 0.022,0.098 0.023,0.098C0.048,0.085 0.076,0.04 0.108,-0.039C0.14,-0.117 0.156,-0.203 0.156,-0.298Z" style="fill:rgb(62,140,182);fill-rule:nonzero;"/>
        </g>
    </g>
</svg>
