<?xml version="1.0" encoding="UTF-8" standalone="no"?>
<!DOCTYPE svg PUBLIC "-//W3C//DTD SVG 1.1//EN" "http://www.w3.org/Graphics/SVG/1.1/DTD/svg11.dtd">
<svg width="100%" height="100%" viewBox="0 0 588 151" version="1.1" xmlns="http://www.w3.org/2000/svg" xmlns:xlink="http://www.w3.org/1999/xlink" xml:space="preserve" xmlns:serif="http://www.serif.com/" style="fill-rule:evenodd;clip-rule:evenodd;stroke-linejoin:round;stroke-miterlimit:2;">
    <g transform="matrix(0.444315,0,0,0.444315,-414.013,-700.124)">
        <path d="M1564.96,1898.91L1378.2,1898.91L1378.2,1914.9L1564.96,1914.9L1564.96,1898.91ZM1356.81,1898.86L1155.8,1898.86L1155.8,1914.85L1356.81,1914.85L1356.81,1898.86ZM1118.56,1898.86L931.801,1898.86L931.801,1914.85L1118.56,1914.85L1118.56,1898.86ZM1579.21,1874.06L1378.2,1874.06L1378.2,1890.05L1579.21,1890.05L1579.21,1874.06ZM1341.21,1874.01L1155.8,1874.01L1155.8,1890L1341.21,1890L1341.21,1874.01ZM1132.81,1874.01L931.801,1874.01L931.801,1890L1132.81,1890L1132.81,1874.01ZM1542.4,1849.2L1378.2,1849.2L1378.2,1865.19L1542.4,1865.19L1542.4,1849.2ZM1032.31,1849.15L931.801,1849.15L931.801,1865.14L1032.31,1865.14L1032.31,1849.15ZM1301.73,1849.15L1155.8,1849.15L1155.8,1865.14L1301.73,1865.14L1301.73,1849.15ZM1564.96,1824.35L1378.2,1824.35L1378.2,1840.34L1564.96,1840.34L1564.96,1824.35ZM1290.1,1824.3L1155.8,1824.3L1155.8,1840.29L1290.1,1840.29L1290.1,1824.3ZM1108.85,1824.3L931.801,1824.3L931.801,1840.29L1108.85,1840.29L1108.85,1824.3ZM1439.71,1799.49L1378.2,1799.49L1378.2,1815.49L1439.71,1815.49L1439.71,1799.49ZM1132.81,1799.44L931.801,1799.44L931.801,1815.44L1132.81,1815.44L1132.81,1799.44ZM1341.21,1799.44L1155.8,1799.44L1155.8,1815.44L1341.21,1815.44L1341.21,1799.44ZM1501.21,1774.64L1378.2,1774.64L1378.2,1790.63L1501.21,1790.63L1501.21,1774.64ZM1093.78,1774.59L931.801,1774.59L931.801,1790.58L1093.78,1790.58L1093.78,1774.59ZM1328.12,1774.59L1155.8,1774.59L1155.8,1790.58L1328.12,1790.58L1328.12,1774.59ZM1523.76,1749.79L1378.2,1749.79L1378.2,1765.78L1523.76,1765.78L1523.76,1749.79ZM1326.32,1749.74L1155.8,1749.74L1155.8,1765.73L1326.32,1765.73L1326.32,1749.74ZM1102.32,1749.74L931.801,1749.74L931.801,1765.73L1102.32,1765.73L1102.32,1749.74ZM1564.96,1724.91L1378.2,1724.91L1378.2,1740.9L1564.96,1740.9L1564.96,1724.91ZM1356.81,1724.86L1155.8,1724.86L1155.8,1740.85L1356.81,1740.85L1356.81,1724.86ZM1118.56,1724.86L931.801,1724.86L931.801,1740.85L1118.56,1740.85L1118.56,1724.86ZM1579.21,1700.06L1378.2,1700.06L1378.2,1716.05L1579.21,1716.05L1579.21,1700.06ZM1341.21,1700.01L1155.8,1700.01L1155.8,1716L1341.21,1716L1341.21,1700.01ZM1132.81,1700.01L931.801,1700.01L931.801,1716L1132.81,1716L1132.81,1700.01ZM1542.4,1675.2L1378.2,1675.2L1378.2,1691.19L1542.4,1691.19L1542.4,1675.2ZM1301.73,1675.15L1155.8,1675.15L1155.8,1691.14L1301.73,1691.14L1301.73,1675.15ZM1032.31,1675.15L931.801,1675.15L931.801,1691.14L1032.31,1691.14L1032.31,1675.15ZM1564.96,1650.35L1378.2,1650.35L1378.2,1666.34L1564.96,1666.34L1564.96,1650.35ZM1108.85,1650.3L931.801,1650.3L931.801,1666.29L1108.85,1666.29L1108.85,1650.3ZM1290.1,1650.3L1155.8,1650.3L1155.8,1666.29L1290.1,1666.29L1290.1,1650.3ZM1439.71,1625.49L1378.2,1625.49L1378.2,1641.49L1439.71,1641.49L1439.71,1625.49ZM1341.21,1625.44L1155.8,1625.44L1155.8,1641.44L1341.21,1641.44L1341.21,1625.44ZM1132.81,1625.44L931.801,1625.44L931.801,1641.44L1132.81,1641.44L1132.81,1625.44ZM1501.21,1600.64L1378.2,1600.64L1378.2,1616.63L1501.21,1616.63L1501.21,1600.64ZM1328.12,1600.59L1155.8,1600.59L1155.8,1616.58L1328.12,1616.58L1328.12,1600.59ZM1093.78,1600.59L931.801,1600.59L931.801,1616.58L1093.78,1616.58L1093.78,1600.59ZM1523.76,1575.79L1378.2,1575.79L1378.2,1591.78L1523.76,1591.78L1523.76,1575.79ZM1326.32,1575.74L1155.8,1575.74L1155.8,1591.73L1326.32,1591.73L1326.32,1575.74ZM1102.32,1575.74L931.801,1575.74L931.801,1591.73L1102.32,1591.73L1102.32,1575.74Z" style="fill:rgb(62,140,182);"/>
    </g>
    <g transform="matrix(0.444315,0,0,0.444315,-114.55,-700.124)">
        <path d="M1564.96,1898.91L1378.2,1898.91L1378.2,1914.9L1564.96,1914.9L1564.96,1898.91ZM1356.81,1898.86L1155.8,1898.86L1155.8,1914.85L1356.81,1914.85L1356.81,1898.86ZM1118.56,1898.86L931.801,1898.86L931.801,1914.85L1118.56,1914.85L1118.56,1898.86ZM1579.21,1874.06L1378.2,1874.06L1378.2,1890.05L1579.21,1890.05L1579.21,1874.06ZM1341.21,1874.01L1155.8,1874.01L1155.8,1890L1341.21,1890L1341.21,1874.01ZM1132.81,1874.01L931.801,1874.01L931.801,1890L1132.81,1890L1132.81,1874.01ZM1542.4,1849.2L1378.2,1849.2L1378.2,1865.19L1542.4,1865.19L1542.4,1849.2ZM1032.31,1849.15L931.801,1849.15L931.801,1865.14L1032.31,1865.14L1032.31,1849.15ZM1301.73,1849.15L1155.8,1849.15L1155.8,1865.14L1301.73,1865.14L1301.73,1849.15ZM1564.96,1824.35L1378.2,1824.35L1378.2,1840.34L1564.96,1840.34L1564.96,1824.35ZM1290.1,1824.3L1155.8,1824.3L1155.8,1840.29L1290.1,1840.29L1290.1,1824.3ZM1108.85,1824.3L931.801,1824.3L931.801,1840.29L1108.85,1840.29L1108.85,1824.3ZM1439.71,1799.49L1378.2,1799.49L1378.2,1815.49L1439.71,1815.49L1439.71,1799.49ZM1132.81,1799.44L931.801,1799.44L931.801,1815.44L1132.81,1815.44L1132.81,1799.44ZM1341.21,1799.44L1155.8,1799.44L1155.8,1815.44L1341.21,1815.44L1341.21,1799.44ZM1501.21,1774.64L1378.2,1774.64L1378.2,1790.63L1501.21,1790.63L1501.21,1774.64ZM1093.78,1774.59L931.801,1774.59L931.801,1790.58L1093.78,1790.58L1093.78,1774.59ZM1328.12,1774.59L1155.8,1774.59L1155.8,1790.58L1328.12,1790.58L1328.12,1774.59ZM1523.76,1749.79L1378.2,1749.79L1378.2,1765.78L1523.76,1765.78L1523.76,1749.79ZM1326.32,1749.74L1155.8,1749.74L1155.8,1765.73L1326.32,1765.73L1326.32,1749.74ZM1102.32,1749.74L931.801,1749.74L931.801,1765.73L1102.32,1765.73L1102.32,1749.74ZM1564.96,1724.91L1378.2,1724.91L1378.2,1740.9L1564.96,1740.9L1564.96,1724.91ZM1356.81,1724.86L1155.8,1724.86L1155.8,1740.85L1356.81,1740.85L1356.81,1724.86ZM1118.56,1724.86L931.801,1724.86L931.801,1740.85L1118.56,1740.85L1118.56,1724.86ZM1579.21,1700.06L1378.2,1700.06L1378.2,1716.05L1579.21,1716.05L1579.21,1700.06ZM1341.21,1700.01L1155.8,1700.01L1155.8,1716L1341.21,1716L1341.21,1700.01ZM1132.81,1700.01L931.801,1700.01L931.801,1716L1132.81,1716L1132.81,1700.01ZM1542.4,1675.2L1378.2,1675.2L1378.2,1691.19L1542.4,1691.19L1542.4,1675.2ZM1301.73,1675.15L1155.8,1675.15L1155.8,1691.14L1301.73,1691.14L1301.73,1675.15ZM1032.31,1675.15L931.801,1675.15L931.801,1691.14L1032.31,1691.14L1032.31,1675.15ZM1564.96,1650.35L1378.2,1650.35L1378.2,1666.34L1564.96,1666.34L1564.96,1650.35ZM1108.85,1650.3L931.801,1650.3L931.801,1666.29L1108.85,1666.29L1108.85,1650.3ZM1290.1,1650.3L1155.8,1650.3L1155.8,1666.29L1290.1,1666.29L1290.1,1650.3ZM1439.71,1625.49L1378.2,1625.49L1378.2,1641.49L1439.71,1641.49L1439.71,1625.49ZM1341.21,1625.44L1155.8,1625.44L1155.8,1641.44L1341.21,1641.44L1341.21,1625.44ZM1132.81,1625.44L931.801,1625.44L931.801,1641.44L1132.81,1641.44L1132.81,1625.44ZM1501.21,1600.64L1378.2,1600.64L1378.2,1616.63L1501.21,1616.63L1501.21,1600.64ZM1328.12,1600.59L1155.8,1600.59L1155.8,1616.58L1328.12,1616.58L1328.12,1600.59ZM1093.78,1600.59L931.801,1600.59L931.801,1616.58L1093.78,1616.58L1093.78,1600.59ZM1523.76,1575.79L1378.2,1575.79L1378.2,1591.78L1523.76,1591.78L1523.76,1575.79ZM1326.32,1575.74L1155.8,1575.74L1155.8,1591.73L1326.32,1591.73L1326.32,1575.74ZM1102.32,1575.74L931.801,1575.74L931.801,1591.73L1102.32,1591.73L1102.32,1575.74Z" style="fill:rgb(62,140,182);"/>
    </g>
</svg>
