<svg xmlns="http://www.w3.org/2000/svg" xml:space="preserve" style="fill-rule:evenodd;clip-rule:evenodd;stroke-linejoin:round;stroke-miterlimit:2" viewBox="0 0 1105 652"><path d="m1003.4 318.9 165.2 161.3-44.2 45.4c-62.8 64.4-121.6 69.9-176.2 16.5a121.7 121.7 0 0 1-33.8-54.2 101 101 0 0 1 1.3-59 144.8 144.8 0 0 1 36.3-57.3l51.4-52.7Zm-2 44L973.9 391c-21.3 21.7-32.1 43.2-32.5 64.6-.5 21.3 9.2 41.8 29.2 61.3 21 20.5 42 30 63.4 28.7 21.3-1.3 43.4-13.7 66.3-37l24.6-25.2L1001.4 363Z" style="fill:#159fc1;fill-rule:nonzero" transform="translate(-147.1 -118.6) scale(.68928)"/><path d="m1195.2 456.5-165-161.5 44.1-45.4c62.8-64.2 121.5-69.5 176.1-16a122 122 0 0 1 33.8 54.1c5.4 19.4 5 40-1.3 59a144.9 144.9 0 0 1-36.3 57.4l-51.4 52.4Zm2-44 27.7-28.1c21.2-21.7 32-43.3 32.4-65 .4-21.6-9.3-42-29.2-61.2-21-20.5-42-30.1-63.4-28.8-21.3 1.4-43.4 13.7-66.3 37.1L1074 292l123.3 120.5Z" style="fill:#48a36e;fill-rule:nonzero" transform="translate(-147.1 -118.6) scale(.68928)"/><path d="M305.3 663h-65.5v240h76.3c23.8.5 47.5-4.5 69-14.8a105.6 105.6 0 0 0 44.7-41.9 126 126 0 0 0 15.7-64.4c0-79.2-46.7-118.8-140.2-118.8Zm81.1 187c-16.2 15-40 22.6-71.6 22.6h-41v-179h36.6c34 0 59.2 7.5 75.7 22.3 16.4 14.8 24.7 37.4 24.7 67.8 0 29-8.1 51.1-24.4 66.3Zm170.3-53.8H665v-29.5H556.6v-74.3h112.6l-.2-29.3H523V903h148l2.6-29.4H556.7v-77.4ZM806.4 703c13-8.2 28-12.4 43.4-12.1a65 65 0 0 1 60.5 34.8l26.4-19.6c-18.5-30.8-47.3-46.3-86.5-46.3A119 119 0 0 0 788 676a112.6 112.6 0 0 0-41.7 45 141.7 141.7 0 0 0-15 66.5 138 138 0 0 0 13.5 63.3 95.6 95.6 0 0 0 39 41 121.8 121.8 0 0 0 60.7 14c18.9.3 37.6-4 54.4-12.7a91.5 91.5 0 0 0 37.4-36.6L911 837a71 71 0 0 1-66 37.7 74 74 0 0 1-57.9-23c-13.8-15.3-20.7-36.8-20.7-64.6-.4-17.2 3.3-34.4 10.6-50a82.3 82.3 0 0 1 29.4-34Z" style="fill-rule:nonzero" transform="translate(-147.1 -118.6) scale(.68928)"/><path d="M539.3 338.5h23.5v165.3h-23.5z"/><path d="M1182 663h-65.6v240h76.3c23.8.5 47.4-4.5 69-14.8a105.6 105.6 0 0 0 44.7-41.9 127 127 0 0 0 15.7-64.4c0-79.2-46.7-118.8-140.2-118.8Zm81 186.9c-16.3 15-40.2 22.6-71.7 22.6h-40.8v-179h36.4c34 0 59.2 7.5 75.7 22.3 16.4 14.8 24.6 37.4 24.6 67.8 0 29-8 51.1-24.3 66.3Zm170.2-53.7h108.3v-29.5h-108.4v-74.3h112.6l-.2-29.3h-145.8V903h147.7l2.8-29.4h-117v-77.4Zm367.2 73.6a35.8 35.8 0 0 1-19.5 5.2c-6.2.3-12.4-1.2-17.8-4.2a59.7 59.7 0 0 1-15-17l-25.6-38a57 57 0 0 0-18.6-18.2c13-.7 25.6-3.8 37.4-9.1a65 65 0 0 0 14.2-107.3c-14.8-12.1-36.6-18.1-65.1-18.1H1620v239.8h33.5V798.8h5.3c10 .6 18.8 6.4 23.4 15.2l40.2 60a72 72 0 0 0 24.3 24.2c9 4.8 19.1 7.3 29.4 7 11.4.7 22.7-2.5 32-9l-7.7-26.4Zm-114.8-98.3h-32.1v-80.4h34.8c18.9 0 32.9 3.5 42 10.5 9.3 7 14.5 18 14 29.7 1 12.1-4.8 23.9-15 30.6a81.5 81.5 0 0 1-43.7 9.6Z" style="fill-rule:nonzero" transform="translate(-147.1 -118.6) scale(.68928)"/><path d="M18.3 578.8h5.1V626h-5z"/><path d="M321.3 1031.4a18 18 0 0 0-10.9 3.7c-3.4 2.5-6 6.3-7.8 11.4a18 18 0 0 0-4.7-11.4c-2.7-2.5-6.4-4-10.1-3.7-4.1 0-8 1.5-11 4.2a26.6 26.6 0 0 0-7.6 13.1l.5-16.5h-7.1v48h7a117 117 0 0 1 1.3-20.5 48 48 0 0 1 3.8-13c1.2-2.7 3-5 5.4-6.8 1.8-1.3 4-2 6.3-2 3.4 0 5.8 1.2 7.3 3.5a20 20 0 0 1 2.3 10.7v28h7c-.2-6.8.3-13.6 1.3-20.4a47 47 0 0 1 3.7-13c1.2-2.7 3-5 5.3-6.8 1.9-1.3 4-2 6.3-2 6.6 0 9.9 4.7 9.8 14.2l-.2 28h7l.2-28.9c0-6.4-1.2-11.3-3.8-14.7a13.3 13.3 0 0 0-11.3-5.1Zm63.7 2.8c-3-2-6.7-3-10.3-2.9-3.7 0-7.4 1.1-10.4 3.3a22 22 0 0 0-7.2 8.8l.3-11.2h-7.1v67.3h7v-25.6c1.2 2.2 3 4 5.2 5.1a16 16 0 0 0 8 2 21.3 21.3 0 0 0 20.1-13.1 33.2 33.2 0 0 0 .7-25.8c-1.3-3.2-3.5-6-6.3-7.9Zm-3.2 34.7a14 14 0 0 1-11.5 5.6 12 12 0 0 1-9.5-4 16.2 16.2 0 0 1-3.6-11c0-4 .7-7.7 2.2-11.3a19 19 0 0 1 5.9-7.7c2.4-1.8 5.4-2.8 8.4-2.8 3.6-.1 7 1.5 9.1 4.4 2.3 3 3.4 7 3.4 12.1 0 6.1-1.5 11-4.4 14.7Zm47.5-37.5c-3.7 0-7.3 1.5-10 4a27 27 0 0 0-6.9 13.9l.5-17h-7v47.9h7a95 95 0 0 1 3.8-32c2.6-6.5 6.7-9.8 12.3-9.8a19.8 19.8 0 0 1 4 .5l1.1-6.9-2-.5a23 23 0 0 0-2.8-.1Zm30.7 0a21.8 21.8 0 0 0-20.1 12.5c-2 4-3 8.6-2.9 13.1 0 7.4 2 13.3 5.8 17.5 3.9 4.3 9.2 6.4 16 6.4a21.1 21.1 0 0 0 19.8-12.6c2-4 3-8.6 2.9-13.1a25 25 0 0 0-5.8-17.4 20 20 0 0 0-15.6-6.4Zm10 37.8a13.7 13.7 0 0 1-11.3 5.3 13 13 0 0 1-10.5-4.5c-2.6-3-3.8-7.3-3.8-13-.1-3.4.6-6.8 2-10a14.2 14.2 0 0 1 13.8-9.3c4-.2 7.7 1.5 10.2 4.6a20 20 0 0 1 3.8 12.9 22 22 0 0 1-4.3 14Zm38.7 5.3-13.3-42.3h-7.6l15.6 48h9.8l18.7-48h-7l-16.2 42.3Z" style="fill-rule:nonzero" transform="translate(-147.1 -118.6) scale(.68928)"/><path d="M224.5 592.9h4.8v33h-4.8z"/><path d="M543 1011.7c-1.4 0-2.7.4-3.6 1.4-.9 1-1.3 2.1-1.3 3.4a5 5 0 0 0 1.2 3.4c2 1.9 5.2 1.9 7.1 0a5 5 0 0 0 0-6.8c-.9-1-2.2-1.5-3.5-1.4Zm43.6 19.7c-4.4-.1-8.6 1.5-12 4.4-3.3 3-5.8 7.2-7.4 12.8l.6-16.4h-7.1v48h6.9c0-10.6.8-19 2.3-25.2a28 28 0 0 1 6.1-13.2c2.3-2.4 5.5-3.8 8.9-3.9 3.4 0 6 1.2 7.5 3.6 1.6 2.4 2.4 5.9 2.4 10.6l-.2 28h7l.2-28.9c0-6.4-1.3-11.3-4-14.7a13.4 13.4 0 0 0-11.2-5.1Zm64.4 7.9a13.8 13.8 0 0 0-5.5-5.7 16.5 16.5 0 0 0-8.6-2.2 21.7 21.7 0 0 0-20.3 12.8c-2 4.3-3 9-3 13.8a25 25 0 0 0 4.9 15.9c3.2 4.1 8 6.2 14 6.2 3.8 0 7.5-1.1 10.6-3.4a23 23 0 0 0 7.4-9l-.2 7c-.2 6.8-1.5 11.6-4.1 14.7-2.6 3-7 4.6-13.2 4.6a32.4 32.4 0 0 1-14-3.3l-2 6.3c2.4 1.3 4.9 2.2 7.5 2.6 2.7.5 5.5.8 8.3.8 16.3 0 24.4-8.9 24.4-26.7v-41.5H652l-1 7Zm-2.9 23.9c-1.3 3-3.3 5.6-6 7.6a14.1 14.1 0 0 1-8.5 2.8c-3.6.2-7-1.4-9.3-4.2a18.8 18.8 0 0 1-3.3-12c-.1-3.5.6-7 2-10.2 1.2-2.8 3.1-5.2 5.6-7 2.5-1.7 5.5-2.5 8.5-2.5 4 0 7.3 1.3 9.7 3.9 2.3 2.6 3.5 6.1 3.5 10.7 0 3.7-.7 7.5-2.2 10.9Zm66.9-25.4c5-.2 9.5 2.5 11.8 6.9l5.4-4a18.2 18.2 0 0 0-17-9.3 22.2 22.2 0 0 0-20.6 12.3c-2.1 4-3.1 8.7-3 13.3 0 7.5 2 13.4 6 17.6 4 4.2 9.4 6.3 16.4 6.3 8.3 0 14.3-3 18.2-9.3l-5.2-4a13 13 0 0 1-5.4 5.1 16 16 0 0 1-7.3 1.7c-5 0-8.7-1.5-11.4-4.5a19 19 0 0 1-4-12.9 21 21 0 0 1 4.5-14c2.8-3.4 7.1-5.3 11.6-5.2Zm41.3 36.3c-1 .3-1.9.5-2.8.5-2 0-3.5-.6-4.4-1.7a7.4 7.4 0 0 1-1.4-4.8v-59.3h-7v60.2c-.2 3.1.8 6.2 2.9 8.7 1.9 2.1 4.8 3.2 8.8 3.2 1.5 0 3-.2 4.4-.6a9 9 0 0 0 3.5-1.8l-1.9-5.3-2.1 1Zm13.6-62.4a4.6 4.6 0 0 0-4.8 4.8 5 5 0 0 0 1.2 3.4c2 1.9 5.2 1.9 7.1 0a5 5 0 0 0 0-6.8c-.9-1-2.2-1.5-3.5-1.4Z" style="fill-rule:nonzero" transform="translate(-147.1 -118.6) scale(.68928)"/><path d="M381 592.9h4.8v33H381z"/><path d="M813.6 1031.4c-4.4-.1-8.6 1.5-12 4.4-3.3 3-5.8 7.2-7.4 12.8l.6-16.4h-7.2v48h7c0-10.6.7-19 2.3-25.2a28 28 0 0 1 6.1-13.2c2.3-2.4 5.5-3.8 8.9-3.9 3.4 0 6 1.2 7.5 3.6 1.6 2.4 2.4 5.9 2.4 10.6l-.2 28h7l.2-28.9c0-6.4-1.3-11.3-4-14.7a13.4 13.4 0 0 0-11.2-5.1Z" style="fill-rule:nonzero" transform="translate(-147.1 -118.6) scale(.68928)"/><path d="M433.7 592.9h4.8v33h-4.8z"/><path d="M846.4 1011.7a4.6 4.6 0 0 0-4.8 4.8 5 5 0 0 0 1.2 3.4c2 1.9 5.2 1.9 7.1 0a5 5 0 0 0 0-6.8c-.9-1-2.2-1.5-3.5-1.4Zm39.1 26.1c5-.2 9.5 2.5 11.8 6.9l5.4-4a18.2 18.2 0 0 0-17-9.3 22.2 22.2 0 0 0-20.6 12.3c-2.1 4-3.1 8.7-3 13.3 0 7.5 2 13.4 6 17.6 4 4.2 9.4 6.3 16.4 6.3 8.3 0 14.3-3 18.2-9.3l-5.2-4a13 13 0 0 1-5.4 5.1 16 16 0 0 1-7.3 1.7c-5 0-8.7-1.5-11.4-4.5a19 19 0 0 1-4-12.9 21 21 0 0 1 4.5-14c2.8-3.4 7.1-5.3 11.6-5.2Zm58.5 1.5a13 13 0 0 0-5.4-5.7 16 16 0 0 0-8.5-2.2 21.4 21.4 0 0 0-20.1 13 33.9 33.9 0 0 0-.7 25.8 17.1 17.1 0 0 0 16.6 10.7c3.7 0 7.3-1 10.3-3.2 3.1-2.3 5.6-5.3 7.2-8.8l-.3 11.3h7.2v-48H945l-1 7Zm-2.8 24.7c-1.2 3-3.3 5.7-5.9 7.7a13.8 13.8 0 0 1-8.5 2.8c-3.5.1-7-1.5-9-4.4-2.3-3-3.4-7-3.4-12.2a23 23 0 0 1 4.3-14.7 14 14 0 0 1 11.6-5.5 12 12 0 0 1 9.6 4c2.3 2.7 3.4 6.3 3.4 11 .1 3.8-.6 7.7-2 11.3Zm39.2 10.1c-1 .3-1.9.5-2.8.5-2 0-3.6-.6-4.5-1.7a7.4 7.4 0 0 1-1.3-4.8v-59.3h-7v60.2c-.2 3.1.8 6.2 2.8 8.7 2 2.1 5 3.2 9 3.2a16 16 0 0 0 4.3-.6 9 9 0 0 0 3.5-1.8l-1.9-5.3-2.1 1Zm66-41.9.2 6a13.6 13.6 0 0 0-5.5-5 16.8 16.8 0 0 0-7.9-1.8 21.3 21.3 0 0 0-20.1 13 33.9 33.9 0 0 0-.7 25.8 16.8 16.8 0 0 0 16.6 10.7c3.7 0 7.3-1 10.3-3.2a23 23 0 0 0 7.3-8.8l-.3 11.3h7.1v-71.4h-7v23.4Zm-2 31.8c-1.3 3-3.3 5.7-6 7.7a13.9 13.9 0 0 1-8.4 2.8c-3.6.1-7-1.5-9.1-4.4-2.3-3-3.4-7-3.4-12.2a23 23 0 0 1 4.4-14.7 14 14 0 0 1 11.5-5.5 12 12 0 0 1 9.6 4c2.3 2.7 3.5 6.3 3.5 11 0 3.8-.7 7.7-2.2 11.3Zm59.4-25.8a18.2 18.2 0 0 0-15.2-6.8 21.5 21.5 0 0 0-19.9 12.2 30 30 0 0 0-3 13.2c0 7.6 2.2 13.5 6.4 17.8 4.2 4.2 10 6.3 17.4 6.3a21 21 0 0 0 18.4-9.3l-4.4-4a17 17 0 0 1-6.1 5.2 17.1 17.1 0 0 1-7.4 1.7c-5.3 0-9.4-1.4-12.3-4-3-2.8-4.5-6.7-4.7-11.8h34.6c1-9.1-.2-16-3.8-20.5Zm-2.3 14.8H1073a21 21 0 0 1 2.5-8 15 15 0 0 1 5.4-5.8 14 14 0 0 1 7.7-2.2c3.5 0 7 1.3 9.5 3.8 2.4 2.5 3.5 6.6 3.3 12.2Zm39.3-15.2c5-.2 9.5 2.5 11.8 6.9l5.4-4a18.2 18.2 0 0 0-17-9.3 22.2 22.2 0 0 0-20.6 12.3c-2.1 4-3.1 8.7-3 13.3 0 7.5 2 13.4 6 17.6 4 4.2 9.4 6.3 16.4 6.3 8.3 0 14.3-3 18.2-9.3l-5.2-4a13 13 0 0 1-5.4 5.1 16 16 0 0 1-7.3 1.7c-5 0-8.7-1.5-11.3-4.5-2.7-3-4-7.2-4-12.9a21 21 0 0 1 4.4-14c2.8-3.4 7.1-5.3 11.6-5.2Z" style="fill-rule:nonzero" transform="translate(-147.1 -118.6) scale(.68928)"/><path d="M657 592.9h4.7v33h-4.8z"/><path d="M1170.1 1011.7c-1.3 0-2.6.4-3.5 1.4a5 5 0 0 0-1.3 3.4 5 5 0 0 0 1.3 3.4 5 5 0 0 0 7 0 5 5 0 0 0 0-6.8 4 4 0 0 0-3.5-1.4Zm43.2 44.7c-2.8-1-5.8-1.9-8.7-2.5-4.2-.9-7.1-2-8.7-3.2a6.1 6.1 0 0 1-2.4-5c-.1-2.4.9-4.7 2.7-6.2 2.1-1.6 4.8-2.4 7.4-2.3 6 0 9.5 2.7 10.4 8l6-1.6c-.5-3.5-2.4-6.8-5.3-9a18 18 0 0 0-11-3.1c-3-.1-6 .5-8.8 1.8-2.5 1.2-4.6 3-6.2 5.2a12.8 12.8 0 0 0-2.2 7.3c-.1 2.6.6 5.1 2 7.3 1.4 1.9 3.3 3.3 5.5 4.2 2.7 1 5.6 1.9 8.5 2.4 3 .5 6 1.4 8.8 2.8 1.8 1 3 2.8 2.8 4.8 0 2.3-1 4.4-2.7 5.7a12.8 12.8 0 0 1-8 2.2 16 16 0 0 1-9.6-2.5c-2.1-1.6-3.4-4-3.9-7.5l-6.2 1.5c.3 4.1 2.4 8 5.7 10.5 3.3 2.5 8 3.7 14 3.7a22 22 0 0 0 9.2-1.8 15 15 0 0 0 6.3-5c1.4-2.1 2.2-4.7 2.2-7.2 0-2.4-.7-4.8-2.1-6.7a14 14 0 0 0-5.7-3.8Zm21.9-44.7c-1.4 0-2.7.4-3.6 1.4-.8 1-1.3 2.1-1.3 3.4a5 5 0 0 0 1.3 3.4 5 5 0 0 0 7 0 5 5 0 0 0 0-6.8 4 4 0 0 0-3.4-1.4Z" style="fill-rule:nonzero" transform="translate(-147.1 -118.6) scale(.68928)"/><path d="M701.7 592.9h4.8v33h-4.8z"/><path d="M1273.8 1031.4a21.8 21.8 0 0 0-20.2 12.5c-2 4-2.9 8.6-2.8 13.1 0 7.4 1.9 13.3 5.8 17.5a20 20 0 0 0 15.9 6.4 21.1 21.1 0 0 0 19.9-12.6c2-4 3-8.6 2.8-13.1a25 25 0 0 0-5.7-17.4 20 20 0 0 0-15.7-6.4Zm9.9 37.8a13.6 13.6 0 0 1-11.2 5.3c-4.5 0-8-1.5-10.6-4.5-2.5-3-3.8-7.3-3.8-13 0-3.4.6-6.8 2-10 1.2-2.7 3-5 5.5-6.8 2.4-1.7 5.4-2.5 8.3-2.5 4-.2 7.8 1.5 10.3 4.6 2.5 3 3.7 7.3 3.7 12.9a22 22 0 0 1-4.2 14Zm49.8-37.8c-4.3-.1-8.6 1.5-11.9 4.4-3.3 3-5.8 7.2-7.4 12.8l.5-16.4h-7.1v48h7c0-10.6.7-19 2.2-25.2a28 28 0 0 1 6.2-13.2c2.3-2.4 5.5-3.8 8.8-3.9 3.5 0 6 1.2 7.6 3.6 1.5 2.4 2.3 5.9 2.3 10.6l-.2 28h7l.3-28.9c0-6.4-1.3-11.3-4-14.7a13.4 13.4 0 0 0-11.3-5.1Zm54.6 25c-2.8-1-5.8-1.9-8.7-2.5-4.2-.9-7.1-2-8.7-3.2a6.1 6.1 0 0 1-2.4-5c-.1-2.4.9-4.7 2.7-6.2 2.1-1.6 4.8-2.4 7.4-2.3 6 0 9.4 2.7 10.4 8l6-1.6c-.5-3.5-2.4-6.8-5.3-9a17.9 17.9 0 0 0-11-3.1c-3-.1-6 .5-8.8 1.8-2.5 1.2-4.6 3-6.2 5.2a12.8 12.8 0 0 0-2.2 7.3c-.1 2.6.6 5.1 2 7.3 1.4 1.9 3.3 3.3 5.5 4.2 2.7 1 5.6 1.9 8.5 2.4 3 .5 6 1.4 8.8 2.8 1.8 1 3 2.8 2.8 4.8 0 2.3-1 4.4-2.7 5.7a12.8 12.8 0 0 1-8 2.2 16 16 0 0 1-9.6-2.5c-2.1-1.6-3.4-4-3.9-7.5l-6.2 1.5c.3 4.1 2.4 8 5.7 10.5 3.3 2.5 8 3.7 14 3.7a22 22 0 0 0 9.2-1.8 15 15 0 0 0 6.3-5c1.4-2.1 2.2-4.7 2.2-7.2 0-2.4-.7-4.8-2.1-6.7a14 14 0 0 0-5.7-3.8Zm43.9-44.7c-1.4 0-2.7.4-3.6 1.4-.8 1-1.3 2.1-1.3 3.4a5 5 0 0 0 1.3 3.4 5 5 0 0 0 7 0 5 5 0 0 0 0-6.8 4 4 0 0 0-3.5-1.4Z" style="fill-rule:nonzero" transform="translate(-147.1 -118.6) scale(.68928)"/><path d="M837.4 592.9h4.7v33h-4.7z"/><path d="M1475.6 1031.4c-4.3-.1-8.6 1.5-11.9 4.4-3.4 3-5.8 7.2-7.5 12.8l.6-16.4h-7.1v48h7c0-10.6.7-19 2.2-25.2a28 28 0 0 1 6.2-13.2c2.3-2.4 5.5-3.8 8.8-3.9 3.5 0 6 1.2 7.6 3.6 1.5 2.4 2.3 5.9 2.3 10.6l-.2 28h7l.3-28.9c0-6.4-1.3-11.3-4-14.7a13.4 13.4 0 0 0-11.3-5.1Zm72.5 6.4c5-.2 9.5 2.5 11.8 6.9l5.4-4a18.2 18.2 0 0 0-17-9.3 22.2 22.2 0 0 0-20.6 12.3c-2.1 4-3.1 8.7-3 13.3 0 7.5 2 13.4 6 17.6 4 4.2 9.4 6.3 16.5 6.3 8.2 0 14.2-3 18-9.3l-5.1-4c-1.3 2.2-3.2 4-5.4 5.1a16 16 0 0 1-7.3 1.7c-5 0-8.7-1.5-11.3-4.5-2.7-3-4-7.2-4-12.9a21 21 0 0 1 4.4-14c2.8-3.4 7.1-5.3 11.6-5.2Zm58.5 1.5a14 14 0 0 0-5.4-5.7 16 16 0 0 0-8.5-2.2 21.4 21.4 0 0 0-20.1 13c-2 4.4-3 9.2-2.9 14 0 4 .7 8 2.2 11.8a18 18 0 0 0 6.4 7.9c3 2 6.6 3 10.2 2.8 3.7 0 7.3-1 10.3-3.2 3.2-2.3 5.7-5.3 7.3-8.8l-.3 11.3h7.1v-48h-5.3l-1 7Zm-2.8 24.7c-1.2 3-3.2 5.7-5.8 7.7a13.8 13.8 0 0 1-8.5 2.8 11 11 0 0 1-9.2-4.4 20 20 0 0 1-3.3-12.2 23 23 0 0 1 4.4-14.7 14 14 0 0 1 11.5-5.5 12 12 0 0 1 9.6 4c2.3 2.7 3.5 6.3 3.5 11 0 3.8-.7 7.7-2.2 11.3Zm49.5-32.6c-4.4-.1-8.6 1.5-11.9 4.4a26 26 0 0 0-7.5 12.8l.6-16.4h-7.1v48h7c0-10.6.7-19 2.2-25.2a28 28 0 0 1 6.2-13.2c2.3-2.4 5.4-3.8 8.8-3.9 3.5 0 6 1.2 7.6 3.6 1.5 2.4 2.3 5.9 2.3 10.6l-.2 28h7l.3-28.9c0-6.4-1.3-11.3-4-14.7a13.4 13.4 0 0 0-11.3-5.1Zm50.5 6.4c5-.2 9.5 2.5 11.8 6.9l5.4-4a18.2 18.2 0 0 0-17-9.3 22.3 22.3 0 0 0-20.7 12.3 29 29 0 0 0-3 13.3c0 7.5 2 13.4 6 17.6 4 4.2 9.5 6.3 16.6 6.3 8.2 0 14.2-3 18.1-9.3l-5.2-4a13 13 0 0 1-5.4 5.1 16 16 0 0 1-7.3 1.7c-4.9 0-8.7-1.5-11.3-4.5-2.7-3-4-7.2-4-12.9a21 21 0 0 1 4.4-14c2.8-3.4 7.1-5.3 11.6-5.2Zm59.7.4a18.2 18.2 0 0 0-15.2-6.8 21.6 21.6 0 0 0-20 12.2c-2 4.1-3 8.6-2.9 13.2 0 7.6 2.1 13.5 6.3 17.8 4.2 4.2 10 6.3 17.4 6.3a21 21 0 0 0 18.5-9.3l-4.5-4c-1.5 2.2-3.6 4-6 5.2a17.2 17.2 0 0 1-7.5 1.7c-5.3 0-9.4-1.4-12.3-4-3-2.8-4.5-6.7-4.7-11.8h34.7c1-9.1-.3-16-3.8-20.5Zm-2.4 14.8h-28.4a21 21 0 0 1 2.5-8 16 16 0 0 1 5.4-5.8c2.3-1.5 5-2.2 7.8-2.2 3.5 0 7 1.3 9.4 3.8 2.5 2.5 3.5 6.6 3.3 12.2Zm44.2-21.5a14.7 14.7 0 0 0-12.7 4 27 27 0 0 0-7 13.8l.6-17h-7v47.9h7c0-14.7 1.3-25.3 3.8-32 2.6-6.5 6.7-9.8 12.3-9.8a19.7 19.7 0 0 1 4 .5l1.1-6.9a7 7 0 0 0-2-.5Z" style="fill-rule:nonzero" transform="translate(-147.1 -118.6) scale(.68928)"/></svg>