<?xml version="1.0" encoding="UTF-8" standalone="no"?>
<!DOCTYPE svg PUBLIC "-//W3C//DTD SVG 1.1//EN" "http://www.w3.org/Graphics/SVG/1.1/DTD/svg11.dtd">
<svg width="100%" height="100%" viewBox="0 0 618 308" version="1.1" xmlns="http://www.w3.org/2000/svg" xmlns:xlink="http://www.w3.org/1999/xlink" xml:space="preserve" xmlns:serif="http://www.serif.com/" style="fill-rule:evenodd;clip-rule:evenodd;stroke-linejoin:round;stroke-miterlimit:2;">
    <g id="HERCULES" transform="matrix(0.344769,0,0,0.344769,-1154.61,-360.638)">
        <g transform="matrix(4.16667,0,0,4.16667,3348.95,1045.45)">
            <path d="M40.001,213.12L40.001,187.68L4.319,187.68L4.319,213.12L0,213.12L0,157.119L4.319,157.119L4.319,183.76L40.001,183.76L40.001,157.119L44.32,157.119L44.32,213.12L40.001,213.12Z" style="fill:rgb(64,63,65);fill-rule:nonzero;"/>
        </g>
        <g transform="matrix(4.16667,0,0,4.16667,3348.95,1045.45)">
            <path d="M66.095,182.959L98.896,182.959L98.896,186.88L66.095,186.88L66.095,208.96L101.457,208.96L101.457,213.12L61.855,213.12L61.855,157.119L100.497,157.119L100.497,161.2L66.095,161.2L66.095,182.959Z" style="fill:rgb(64,63,65);fill-rule:nonzero;"/>
        </g>
        <g transform="matrix(4.16667,0,0,4.16667,3348.95,1045.45)">
            <path d="M118.336,187.84L138.176,187.84C147.937,187.84 152.257,182.32 152.337,174.48C152.416,167.919 147.937,161.119 138.656,161.119L118.336,161.119L118.336,187.84ZM158.656,213.12L152.977,213.12L133.616,191.92L118.336,191.92L118.336,213.12L114.016,213.12L114.016,157.119L138.656,157.119C150.816,157.119 156.977,165.839 157.057,174.56C157.137,183.68 151.137,191.68 138.896,191.68L158.656,213.12Z" style="fill:rgb(64,63,65);fill-rule:nonzero;"/>
        </g>
        <g transform="matrix(4.16667,0,0,4.16667,3348.95,1045.45)">
            <path d="M216.776,205.361C211.176,210.96 203.736,213.76 196.376,213.76C177.495,213.76 167.655,200.56 167.575,185.44C167.415,170.48 177.176,156.479 196.376,156.479C203.736,156.479 211.176,159.28 216.776,164.879L213.816,167.44C209.016,162.639 202.696,160.32 196.376,160.32C180.056,160.32 171.655,171.839 171.735,185.28C171.896,198.4 180.216,209.76 196.376,209.76C202.696,209.76 209.096,207.361 213.896,202.64L216.776,205.361Z" style="fill:rgb(64,63,65);fill-rule:nonzero;"/>
        </g>
        <g transform="matrix(4.16667,0,0,4.16667,3348.95,1045.45)">
            <path d="M271.358,157.119L271.358,191.92C271.358,221.2 228.478,221.281 228.478,191.92L228.478,157.119L232.718,157.119L232.718,191.92C232.718,216 267.118,215.92 267.118,191.92L267.118,157.119L271.358,157.119Z" style="fill:rgb(64,63,65);fill-rule:nonzero;"/>
        </g>
        <g transform="matrix(4.16667,0,0,4.16667,3348.95,1045.45)">
            <path d="M292.798,157.119L292.798,209.04L324.318,209.04L324.318,213.12L288.478,213.12L288.478,157.119L292.798,157.119Z" style="fill:rgb(64,63,65);fill-rule:nonzero;"/>
        </g>
        <g transform="matrix(4.16667,0,0,4.16667,3348.95,1045.45)">
            <path d="M340.469,182.959L373.27,182.959L373.27,186.88L340.469,186.88L340.469,208.96L375.829,208.96L375.829,213.12L336.229,213.12L336.229,157.119L374.869,157.119L374.869,161.2L340.469,161.2L340.469,182.959Z" style="fill:rgb(64,63,65);fill-rule:nonzero;"/>
        </g>
        <g transform="matrix(4.16667,0,0,4.16667,3348.95,1045.45)">
            <path d="M424.325,167.919C420.245,161.36 413.685,160.399 407.364,160.32C400.804,160.32 390.404,162.719 390.404,171.679C390.404,178.8 398.084,180.48 407.524,182.24C418.324,184.32 429.524,186.24 429.524,198.32C429.445,210.96 416.725,214 407.364,214C398.645,214 388.724,210.401 384.404,201.84L388.244,199.92C391.684,206.72 400.484,210.08 407.364,210.08C414.244,210.08 425.205,208.16 425.205,198.241C425.285,189.84 416.005,188 406.805,186.24C396.564,184.24 386.084,182.159 386.084,171.839C385.844,159.999 398.164,156.319 407.364,156.319C415.364,156.319 422.324,157.599 427.845,165.839L424.325,167.919Z" style="fill:rgb(64,63,65);fill-rule:nonzero;"/>
        </g>
        <g transform="matrix(4.16667,0,0,4.16667,3348.95,1045.45)">
            <path d="M211.973,71.238C205.711,71.238 200.635,66.162 200.635,59.9C200.635,53.638 205.711,48.561 211.973,48.561C218.235,48.561 223.312,53.638 223.312,59.9C223.312,66.162 218.235,71.238 211.973,71.238Z" style="fill:rgb(0,158,192);fill-rule:nonzero;"/>
        </g>
        <g transform="matrix(4.16667,0,0,4.16667,3348.95,1045.45)">
            <path d="M240.218,101.308C247.826,94.727 260.717,80.476 259.445,57.563C259.433,57.662 259.433,57.775 259.435,57.875C258.954,46.768 255.509,35.796 248.505,27.056C242.426,19.471 233.975,14.862 224.718,11.976C215.757,9.181 206.718,8.72 196.944,10.089C187.753,11.377 177.941,16.249 172.052,23.476C167.256,29.36 163.1,40.642 163.1,58.124C163.1,58.108 162.385,47.142 163.114,57.973C163.811,68.324 167.323,78.505 172.771,87.342C178.11,96.003 185.454,104.009 195.068,107.573C214.673,114.838 233.249,107.337 240.218,101.308ZM211.943,114.37C201.355,114.258 190.483,111.989 181.06,107.095C175.061,103.995 168.502,99.383 163.201,92.493C157.942,85.642 154.117,76.552 153.233,66.59C146.057,20.783 208.218,-17.524 244.718,8.676C293.78,43.894 269.307,114.254 211.943,114.37Z" style="fill:rgb(90,189,204);fill-rule:nonzero;"/>
        </g>
    </g>
</svg>
